<svg id="Group_78" data-name="Group 78" xmlns="http://www.w3.org/2000/svg" xmlns:xlink="http://www.w3.org/1999/xlink" width="128" height="149.682" viewBox="0 0 128 149.682">
  <defs>
    <clipPath id="clip-path">
      <rect id="Rectangle_96" data-name="Rectangle 96" width="128" height="149.682" fill="none"/>
    </clipPath>
  </defs>
  <path id="Path_99" data-name="Path 99" d="M82.488,49.822l-.17,19.747-.068,6.815-2.839-.017-1.988-.016-1.988-.034L72.58,76.3l.068-6.832.171-19.73,4.843.051Z" transform="translate(-13.31 -9.121)" fill="#579b4f"/>
  <path id="Path_100" data-name="Path 100" d="M72.8,75.616l1.971,2.022-1.988-.016-1.988-.034-2.855-.017L61.108,77.5,47.274,63.432l3.45-3.382,3.449-3.382L68.007,70.739Z" transform="translate(-8.669 -10.392)" fill="#579b4f"/>
  <path id="Path_101" data-name="Path 101" d="M104.967,106.815l-3.45,3.382-3.449,3.382L84.234,99.507l.068-6.832.017-2.838.017-1.988.033-2.006,1.971,2.006v.017l4.793,4.878Z" transform="translate(-15.448 -15.743)" fill="#579b4f"/>
  <path id="Path_102" data-name="Path 102" d="M76.266,82.3l-.017,2.838-.033,2.006L76.2,89.128l-.017,2.838L76.113,98.8l-.17,19.731-4.843-.051-4.827-.033.17-19.748L52.372,112.529,48.99,109.1l-3.382-3.45L59.68,91.813l-19.731-.17L40,86.8l.033-4.826,19.731.17,6.832.068,2.855.017,1.988.033,1.988.017Z" transform="translate(-7.326 -15.033)" fill="#fff"/>
  <path id="Path_103" data-name="Path 103" d="M110.965,82.607l-.051,4.843-.034,4.826-19.73-.17-6.832-.068.016-2.838.017-1.988.034-2.006.017-2.838,6.832.068Z" transform="translate(-15.463 -15.105)" fill="#579b4f"/>
  <path id="Path_104" data-name="Path 104" d="M103.794,63.967,89.723,77.8l-4.878,4.776v.017h-.017l-2,1.971.016-1.988.034-2.006.017-2.838-2.839-.017L78.065,77.7l-1.988-.033,2-1.972,4.878-4.775L97.03,57.084l3.382,3.432Z" transform="translate(-13.952 -10.468)" fill="#579b4f"/>
  <text id="I" transform="translate(28.149 32.452) rotate(-39.939)" fill="#fff" font-size="9" font-family="HelveticaNeue-Bold, Helvetica Neue" font-weight="700"><tspan x="0" y="0">I</tspan></text>
  <text id="M" transform="translate(35.773 26.37) rotate(-25.139)" fill="#fff" font-size="9" font-family="HelveticaNeue-Bold, Helvetica Neue" font-weight="700"><tspan x="0" y="0">M</tspan></text>
  <text id="P" transform="matrix(0.991, -0.131, 0.131, 0.991, 52.434, 19.815)" fill="#fff" font-size="9" font-family="HelveticaNeue-Bold, Helvetica Neue" font-weight="700"><tspan x="0" y="0">P</tspan></text>
  <text id="A" transform="translate(66.042 18.639) rotate(7.442)" fill="#fff" font-size="9" font-family="HelveticaNeue-Bold, Helvetica Neue" font-weight="700"><tspan x="0" y="0">A</tspan></text>
  <text id="C" transform="translate(81.131 20.433) rotate(23.826)" fill="#fff" font-size="8" font-family="HelveticaNeue-Bold, Helvetica Neue" font-weight="700"><tspan x="0" y="0">C</tspan></text>
  <text id="T" transform="translate(94.638 28.515) rotate(39.896)" fill="#fff" font-size="9" font-family="HelveticaNeue-Bold, Helvetica Neue" font-weight="700"><tspan x="0" y="0">T</tspan></text>
  <text id="E" transform="translate(14.308 96.987) rotate(58.566)" fill="#fff" font-size="9" font-family="HelveticaNeue-Bold, Helvetica Neue" font-weight="700"><tspan x="0" y="0">E</tspan></text>
  <text id="C-2" data-name="C" transform="matrix(0.73, 0.683, -0.683, 0.73, 23.098, 108.177)" fill="#fff" font-size="8" font-family="HelveticaNeue-Bold, Helvetica Neue" font-weight="700"><tspan x="0" y="0">C</tspan></text>
  <text id="O" transform="matrix(0.895, 0.446, -0.446, 0.895, 34.395, 119.005)" fill="#fff" font-size="9" font-family="HelveticaNeue-Bold, Helvetica Neue" font-weight="700"><tspan x="0" y="0">O</tspan></text>
  <text id="S" transform="translate(49.245 125.368) rotate(10.724)" fill="#fff" font-size="9" font-family="HelveticaNeue-Bold, Helvetica Neue" font-weight="700"><tspan x="0" y="0">S</tspan></text>
  <text id="Y" transform="translate(63.472 127.321) rotate(-4.264)" fill="#fff" font-size="9" font-family="HelveticaNeue-Bold, Helvetica Neue" font-weight="700"><tspan x="0" y="0">Y</tspan></text>
  <text id="S-2" data-name="S" transform="matrix(0.943, -0.332, 0.332, 0.943, 77.986, 125.453)" fill="#fff" font-size="9" font-family="HelveticaNeue-Bold, Helvetica Neue" font-weight="700"><tspan x="0" y="0">S</tspan></text>
  <text id="T-2" data-name="T" transform="translate(91.276 119.964) rotate(-33.954)" fill="#fff" font-size="9" font-family="HelveticaNeue-Bold, Helvetica Neue" font-weight="700"><tspan x="0" y="0">T</tspan></text>
  <text id="E-2" data-name="E" transform="matrix(0.662, -0.749, 0.749, 0.662, 102.394, 111.63)" fill="#fff" font-size="9" font-family="HelveticaNeue-Bold, Helvetica Neue" font-weight="700"><tspan x="0" y="0">E</tspan></text>
  <text id="M-2" data-name="M" transform="matrix(0.416, -0.909, 0.909, 0.416, 111.51, 100.387)" fill="#fff" font-size="9" font-family="HelveticaNeue-Bold, Helvetica Neue" font-weight="700"><tspan x="0" y="0">M</tspan></text>
  <g id="Group_70" data-name="Group 70">
    <g id="Group_69" data-name="Group 69" clip-path="url(#clip-path)">
      <path id="Path_105" data-name="Path 105" d="M144.59,78a3.266,3.266,0,1,1-3.266-3.266A3.267,3.267,0,0,1,144.59,78" transform="translate(-25.318 -13.706)" fill="#fff"/>
      <path id="Path_106" data-name="Path 106" d="M20.59,78a3.266,3.266,0,1,1-3.266-3.266A3.267,3.267,0,0,1,20.59,78" transform="translate(-2.578 -13.706)" fill="#fff"/>
    </g>
  </g>
</svg>
